<svg width="36" height="35" viewBox="0 0 36 35" fill="none" xmlns="http://www.w3.org/2000/svg">
<path d="M35.25 14.1401H22.255L27.5067 8.73507C22.2742 3.56008 13.8025 3.36841 8.56999 8.54341C3.33749 13.7376 3.33749 22.1134 8.56999 27.3076C13.8025 32.5017 22.2742 32.5017 27.5067 27.3076C30.1133 24.7392 31.4167 21.7301 31.4167 17.9351H35.25C35.25 21.7301 33.5633 26.6559 30.19 29.9909C23.4625 36.6609 12.5375 36.6609 5.80999 29.9909C-0.898346 23.3401 -0.955846 12.5301 5.77165 5.87924C12.4992 -0.771592 23.29 -0.771592 30.0175 5.87924L35.25 0.493408V14.1401ZM18.9583 10.0767V18.2226L25.6667 22.2092L24.2867 24.5284L16.0833 19.6601V10.0767H18.9583Z" fill="#8F9C00"/>
</svg>
