<svg width="36" height="36" viewBox="0 0 36 36" fill="none" xmlns="http://www.w3.org/2000/svg">
<path d="M35.5 6.065L15.5325 26.05L8.1125 18.63L10.58 16.1625L15.5325 21.115L33.0325 3.615L35.5 6.065ZM31.6325 14.885C31.86 15.8825 32 16.9325 32 18C32 25.735 25.735 32 18 32C10.265 32 4 25.735 4 18C4 10.265 10.265 4 18 4C20.765 4 23.32 4.805 25.49 6.1875L28.01 3.6675C25.175 1.6725 21.7275 0.5 18 0.5C8.34 0.5 0.5 8.34 0.5 18C0.5 27.66 8.34 35.5 18 35.5C27.66 35.5 35.5 27.66 35.5 18C35.5 15.9175 35.115 13.9225 34.45 12.0675L31.6325 14.885Z" fill="#008D63"/>
</svg>
